<?xml version="1.0" encoding="utf-8"?>
<!-- Generator: Adobe Illustrator 24.1.2, SVG Export Plug-In . SVG Version: 6.00 Build 0)  -->
<svg version="1.1" id="레이어_1" xmlns="http://www.w3.org/2000/svg" xmlns:xlink="http://www.w3.org/1999/xlink" x="0px"
	 y="0px" viewBox="0 0 63 63" style="enable-background:new 0 0 63 63;" xml:space="preserve">
<style type="text/css">
	.st0{fill:#EFEFEF;}
	.st1{fill:#FFFFFF;}
	.st2{fill:#3E3E3F;}
	.st3{fill:#CFD3D4;}
	.st4{fill:#B6BCBD;}
	.st5{fill:#5B5C5F;}
	.st6{fill:#FACB1B;}
	.st7{fill:#4AC3AF;}
	.st8{fill:#21B2D1;}
	.st9{fill:#FA5655;}
	.st10{fill:none;stroke:#FBE158;stroke-width:5;stroke-miterlimit:10;}
	.st11{fill:none;stroke:#17B198;stroke-width:5;stroke-miterlimit:10;}
	.st12{fill:none;stroke:#059BBF;stroke-width:5;stroke-miterlimit:10;}
</style>
<circle class="st0" cx="31.5" cy="31.5" r="31.5"/>
<path class="st1" d="M52.1,7.4c0-1.9-1.5-3.4-3.4-3.4H14.3c-1.9,0-3.4,1.5-3.4,3.4v48.1c0,1.9,1.5,3.4,3.4,3.4h34.4
	c1.9,0,3.4-1.5,3.4-3.4V7.4z"/>
<rect x="14.3" y="9.2" class="st2" width="34.4" height="41.3"/>
<circle class="st3" cx="31.5" cy="54.7" r="1.7"/>
<g>
	<circle class="st4" cx="35.5" cy="34.4" r="1.1"/>
	<rect x="39.2" y="34.1" class="st4" width="4.3" height="0.9"/>
</g>
<g>
	<circle class="st4" cx="35.5" cy="39.8" r="1.1"/>
	<rect x="39.2" y="39.5" class="st4" width="4.3" height="0.9"/>
</g>
<circle class="st2" cx="31.5" cy="6.6" r="0.9"/>
<polygon class="st5" points="14.3,41.8 47,9.2 14.3,9.2 "/>
<g id="XMLID_1_">
	<circle class="st6" cx="24.6" cy="38.4" r="6.9"/>
	<path class="st7" d="M31.5,38.4c0,3.8-3.1,6.9-6.9,6.9c-2.9,0-5.4-1.8-6.4-4.3L31,35.7C31.3,36.5,31.5,37.4,31.5,38.4z"/>
	<path class="st8" d="M31.5,38.4c0,2.4-1.3,4.6-3.2,5.8l-3.7-5.9l6.3-2.6C31.3,36.5,31.5,37.4,31.5,38.4z"/>
	<path class="st9" d="M31,35.7l-6.3,2.6v-6.8C27.5,31.5,29.9,33.2,31,35.7z"/>
</g>
<line id="line1" class="st10" x1="22.9" y1="28.1" x2="22.9" y2="22"/>
<line id="line2" class="st11" x1="31.5" y1="28.1" x2="31.5" y2="18.6"/>
<line id="line3" class="st12" x1="41" y1="28.1" x2="41" y2="14.3"/>
</svg>
