<?xml version="1.0" encoding="utf-8"?>
<!-- Generator: Adobe Illustrator 24.1.2, SVG Export Plug-In . SVG Version: 6.00 Build 0)  -->
<svg version="1.1" id="레이어_1" xmlns="http://www.w3.org/2000/svg" xmlns:xlink="http://www.w3.org/1999/xlink" x="0px"
	 y="0px" viewBox="0 0 63 63" style="enable-background:new 0 0 63 63;" xml:space="preserve">
<style type="text/css">
	.st0{fill:#EFEFEF;}
	.st1{fill:#E2E2E2;}
	.st2{fill:#FFFFFF;}
	.st3{fill:#3E3E3F;}
	.st4{fill:#17B198;}
	.st5{fill:#FA5655;}
</style>
<g id="R-Multicolor">
	<circle class="st0" cx="31.5" cy="31.5" r="31.5"/>
	<g>
		<path class="st1" d="M49.8,45.2c0,2.5-2.1,4.6-4.6,4.6H17.8c-2.5,0-4.6-2.1-4.6-4.6V17.8c0-2.5,2.1-4.6,4.6-4.6h27.5
			c2.5,0,4.6,2.1,4.6,4.6L49.8,45.2L49.8,45.2z"/>
		<path class="st2" d="M45.2,13.2H17.8c-2.5,0-4.6,2.1-4.6,4.6v27.5c0,1.3,0.5,2.5,1.4,3.3l34-34C47.7,13.7,46.5,13.2,45.2,13.2z"/>
		<path class="st3" d="M23.5,41.5c0,1.3-1,2.3-2.3,2.3s-2.3-1-2.3-2.3V20.9c0-1.3,1-2.3,2.3-2.3s2.3,1,2.3,2.3V41.5z"/>
		<path class="st3" d="M33.8,41.5c0,1.3-1,2.3-2.3,2.3s-2.3-1-2.3-2.3V20.9c0-1.3,1-2.3,2.3-2.3s2.3,1,2.3,2.3V41.5z"/>
		<path class="st3" d="M44.1,41.5c0,1.3-1,2.3-2.3,2.3s-2.3-1-2.3-2.3V20.9c0-1.3,1-2.3,2.3-2.3s2.3,1,2.3,2.3V41.5z"/>
		<path id="multi_x5F_1" class="st4" d="M25.2,26.9c0-0.6-0.6-1.1-1.3-1.1h-5.3c-0.7,0-1.3,0.5-1.3,1.1v2.3c0,0.6,0.6,1.1,1.3,1.1
			h5.3c0.7,0,1.3-0.5,1.3-1.1V26.9z"/>
		<path id="multi_x5F_3" class="st4" d="M45.8,26.9c0-0.6-0.6-1.1-1.3-1.1h-5.3c-0.7,0-1.3,0.5-1.3,1.1v2.3c0,0.6,0.6,1.1,1.3,1.1
			h5.3c0.7,0,1.3-0.5,1.3-1.1V26.9z"/>
		<path id="multi_x5F_2" class="st5" d="M35.5,33.8c0-0.6-0.6-1.1-1.3-1.1h-5.3c-0.7,0-1.3,0.5-1.3,1.1v2.3c0,0.6,0.6,1.1,1.3,1.1
			h5.3c0.7,0,1.3-0.5,1.3-1.1V33.8z"/>
	</g>
</g>
</svg>
