<?xml version="1.0" encoding="utf-8"?>
<!-- Generator: Adobe Illustrator 24.1.2, SVG Export Plug-In . SVG Version: 6.00 Build 0)  -->
<svg version="1.1" id="레이어_1" xmlns="http://www.w3.org/2000/svg" xmlns:xlink="http://www.w3.org/1999/xlink" x="0px"
	 y="0px" viewBox="0 0 63 63" style="enable-background:new 0 0 63 63;" xml:space="preserve">
<style type="text/css">
	.st0{fill:#EFEFEF;}
	.st1{fill:#FFFFFF;}
	.st2{fill:#454545;}
	.st3{fill:#FFB933;}
	.st4{fill:#FF8327;}
	.st5{fill:none;stroke:#454545;stroke-miterlimit:10;}
	
</style>
<path id="checklist-label" class="st0" d="M62.8,31.5c0,17.3-14,31.3-31.3,31.3S0.2,48.8,0.2,31.5s14-31.3,31.3-31.3
	C48.8,0.2,62.8,14.2,62.8,31.5z"/>
<g id="check_x5F_box">
	<g>
		<g>
			<path class="st1" d="M39.2,10.8h10.3c0.9,0,1.7,0.8,1.7,1.7v43.6c0,0.9-0.8,1.7-1.7,1.7H13.6c-0.9,0-1.7-0.8-1.7-1.7V12.5
				c0-0.9,0.8-1.7,1.7-1.7h10.3"/>
			<path class="st2" d="M49.4,58.7H13.6c-1.5,0-2.7-1.2-2.7-2.7V12.5c0-1.5,1.2-2.7,2.7-2.7h10.3v1.9H13.6c-0.4,0-0.8,0.3-0.8,0.8
				v43.6c0,0.4,0.3,0.8,0.8,0.8h35.9c0.4,0,0.8-0.3,0.8-0.8V12.5c0-0.4-0.3-0.8-0.8-0.8H39.2V9.8h10.3c1.5,0,2.7,1.2,2.7,2.7v43.6
				C52.1,57.5,50.9,58.7,49.4,58.7L49.4,58.7z"/>
		</g>
		<g>
			<path class="st3" d="M37.5,9.1c0,0-2.6-0.6-2.6-0.9c0-1.9-1.5-3.4-3.4-3.4s-3.4,1.5-3.4,3.4c0,0.3-2.6,0.9-2.6,0.9
				c-0.9,0-1.7,0.8-1.7,1.7v3.4c0,0.9,0.8,1.7,1.7,1.7h12c0.9,0,1.7-0.8,1.7-1.7v-3.4C39.2,9.8,38.4,9.1,37.5,9.1z"/>
			<path class="st2" d="M37.5,16.8h-12c-1.5,0-2.7-1.2-2.7-2.7v-3.4c0-1.4,1.1-2.6,2.5-2.7c0.7-0.1,1.4-0.3,1.8-0.5
				c0.3-2.1,2.1-3.8,4.3-3.8s4.1,1.7,4.3,3.8c0.4,0.1,1.1,0.3,1.8,0.5c1.4,0.1,2.5,1.2,2.5,2.7v3.4C40.1,15.7,38.9,16.8,37.5,16.8
				L37.5,16.8z M31.5,5.7c-1.4,0-2.5,1.1-2.5,2.5c0,0.8-0.5,1.2-3.3,1.8c-0.1,0-0.1,0-0.2,0c-0.4,0-0.8,0.3-0.8,0.8v3.4
				c0,0.4,0.3,0.8,0.8,0.8h12c0.4,0,0.8-0.3,0.8-0.8v-3.4c0-0.4-0.3-0.8-0.8-0.8c-0.1,0-0.1,0-0.2,0C34.5,9.4,34,9,34,8.2
				C34,6.8,32.9,5.7,31.5,5.7L31.5,5.7z"/>
		</g>
	</g>
	<g>
		<circle class="st4" cx="19.2" cy="25.8" r="3.8"/>
		<g>
			<polygon class="st2" points="19.2,28.1 16.6,25.5 18,24.2 19.2,25.4 22.3,22.3 23.7,23.6 			"/>
		</g>
	</g>
	<g>
		<circle class="st4" cx="19.2" cy="37.2" r="3.8"/>
		<g>
			<polygon class="st2" points="19.2,39.4 16.6,36.9 18,35.5 19.2,36.8 22.3,33.6 23.7,35 			"/>
		</g>
	</g>
	<g>
		<circle class="st4" cx="19.2" cy="48.5" r="3.8"/>
		<g>
			<polygon class="st2" points="19.2,50.8 16.6,48.2 18,46.9 19.2,48.1 22.3,45 23.7,46.3 			"/>
		</g>
	</g>
	<line id="gage1" class="st5" x1="28.7" y1="24" x2="47.6" y2="24"/>
	<line id="gage2" class="st5" x1="28.7" y1="27.8" x2="37.3" y2="27.8"/>
	<line id="gage3" class="st5" x1="28.7" y1="35.3" x2="34.3" y2="35.3"/>
	<line id="gage4" class="st5" x1="36.2" y1="35.3" x2="47.6" y2="35.3"/>
	<line id="gage5" class="st5" x1="28.7" y1="39" x2="43.8" y2="39"/>
	<line id="gage6" class="st5" x1="28.7" y1="46.6" x2="47.6" y2="46.6"/>
	<line id="gage7" class="st5" x1="28.7" y1="50.4" x2="34.3" y2="50.4"/>
	<line id="gage8" class="st5" x1="36.2" y1="50.4" x2="41.9" y2="50.4"/>
</g>
</svg>
