<?xml version="1.0" encoding="utf-8"?>
<!-- Generator: Adobe Illustrator 24.1.2, SVG Export Plug-In . SVG Version: 6.00 Build 0)  -->
<svg version="1.1" id="레이어_1" xmlns="http://www.w3.org/2000/svg" xmlns:xlink="http://www.w3.org/1999/xlink" x="0px"
	 y="0px" viewBox="0 0 63 63" style="enable-background:new 0 0 63 63;" xml:space="preserve">
<style type="text/css">
	.st0{fill:#EFEFEF;}
	.st1{fill-rule:evenodd;clip-rule:evenodd;fill:#FDD359;}
	.st2{fill-rule:evenodd;clip-rule:evenodd;fill:#F56A79;}
	.st3{fill-rule:evenodd;clip-rule:evenodd;fill:#2B80A8;}
</style>
<circle class="st0" cx="31.5" cy="31.5" r="31.5"/>

<path id="gear3" class="st1" d="M28.1,35.5c-0.5,0.4-1,0.7-1.6,1.1c-0.1,0-0.2,0.2-0.3,0.2c0,0-0.1-0.1-0.2-0.1
	c-0.2-0.1-0.3-0.2-0.5-0.3c0,0-0.1,0-0.1,0c-0.1,0-0.1,0-0.2-0.1c0,0-0.1,0-0.1-0.1c-0.1,0-0.1-0.1-0.2-0.1c0,0,0,0,0,0
	c-0.1-0.8-0.1-1.7-0.2-2.5c-0.6-0.1-1.3-0.3-2-0.4c-0.4,0.8-0.8,1.5-1.1,2.3c-0.4,0-0.9,0-1.3,0.1c0,0-0.1,0-0.1,0
	c-0.5-0.7-1-1.4-1.4-2.1c-0.1,0-0.3,0.1-0.5,0.2c-0.5,0.2-1,0.3-1.5,0.5c0.1,0.8,0.1,1.7,0.2,2.5c-0.4,0.2-0.8,0.5-1.2,0.8
	c-0.3-0.1-0.5-0.3-0.8-0.4c0,0-0.1,0-0.1,0c0,0-0.1,0-0.1,0c0,0-0.1,0-0.1,0c0,0-0.1,0-0.1,0c0,0-0.1,0-0.1,0c0,0-0.1,0-0.1,0
	c0,0-0.1,0-0.1,0c0,0-0.1,0-0.1,0c0,0-0.1,0-0.1,0c-0.2-0.1-0.4-0.2-0.6-0.3c0,0-0.1,0-0.1,0c0,0,0,0-0.1,0c-0.4,0.5-0.9,1-1.3,1.5
	c0.4,0.7,0.9,1.4,1.4,2.1c-0.1,0.2-0.3,0.5-0.4,0.8c0,0,0,0.1-0.1,0.1c0,0.1,0,0.1-0.1,0.2c0,0.1-0.1,0.2-0.1,0.2
	c-0.8,0.1-1.7,0.1-2.5,0.2c0,0,0,0,0,0c-0.1,0.7-0.3,1.4-0.4,2c0.1,0,0.1,0.1,0.2,0.1c0.1,0,0.1,0.1,0.2,0.1c0.1,0,0.1,0.1,0.2,0.1
	c0.1,0,0.1,0.1,0.2,0.1c0,0,0,0,0.1,0c0.1,0,0.1,0.1,0.2,0.1c0,0,0,0,0.1,0c0.1,0,0.1,0.1,0.2,0.1c0.1,0,0.1,0.1,0.2,0.1
	c0.1,0,0.1,0.1,0.2,0.1c0,0,0,0,0.1,0c0.1,0,0.1,0.1,0.2,0.1c0,0,0,0,0.1,0c0.1,0,0.1,0.1,0.2,0.1c0.1,0,0.1,0.1,0.2,0.1
	c0,0,0,0,0,0c0.1,0.1,0,0.2,0,0.4c0,0.4,0.1,0.7,0.1,1.1c-0.7,0.5-1.4,0.9-2.1,1.4c0.2,0.7,0.4,1.3,0.7,2c0.8-0.1,1.7-0.1,2.5-0.2
	c0,0,0.1,0.1,0.1,0.1c0.2,0.4,0.5,0.7,0.7,1c-0.4,0.8-0.7,1.5-1.1,2.3c0.5,0.5,1,0.9,1.6,1.4c0.7-0.5,1.4-0.9,2.1-1.4
	c0,0,0.1,0.1,0.2,0.1c0.1,0.1,0.2,0.1,0.3,0.2c0.1,0,0.1,0.1,0.2,0.1c0,0,0.1,0,0.1,0c0,0,0.1,0,0.1,0c0.1,0,0.1,0,0.2,0.1
	c0,0,0,0,0,0c0.1,0,0.2,0.1,0.2,0.1c0,0,0,0,0,0c0,0.6,0.1,1.2,0.1,1.8c0,0.2,0,0.5,0.1,0.6c0.7,0.1,1.3,0.3,2,0.4
	c0.4-0.7,0.7-1.5,1.1-2.2c0.5,0,1,0,1.4-0.1c0,0,1,1.4,1.4,2.1c0,0,1.4-0.5,1.9-0.7c-0.1-0.8-0.1-1.7-0.1-2.5
	c0.4-0.2,0.8-0.5,1.2-0.8c0.8,0.3,1.5,0.7,2.2,1.1c0.5-0.5,0.9-1,1.4-1.6c-0.2-0.3-1.2-1.7-1.4-2.1c0.2-0.3,0.6-1.2,0.6-1.3
	c0.8-0.1,1.7-0.1,2.5-0.2c0.1-0.6,0.4-2,0.4-2c-0.7-0.3-1.4-0.7-2.1-1c-0.1,0-0.1-0.1-0.2-0.1c0-0.5,0-1-0.1-1.4
	c0.7-0.5,1.4-1,2.1-1.4c-0.2-0.6-0.6-1.9-0.6-1.9s-2.5,0.1-2.5,0.1c-0.2-0.4-0.5-0.8-0.8-1.2c0.4-0.8,0.7-1.5,1.1-2.3
	c-0.5-0.4-1-0.9-1.5-1.3C28.4,35.3,28.2,35.5,28.1,35.5L28.1,35.5z M24,39.3L24,39.3c0.2,0.1,0.4,0.1,0.5,0.2c0,0,0,0,0,0
	c1.3,0.7,2,1.7,2.5,2.7c0,0.1,0.1,0.2,0.1,0.3c0.4,1.2,0.6,2.5,0.1,4.1c0,0,0,0.1,0,0.1c0,0.1-0.1,0.2-0.1,0.4c0,0,0,0.1-0.1,0.1
	c-0.8,1.6-1.8,2.4-3,2.9c0,0-0.1,0-0.1,0.1c-1.2,0.5-2.6,0.7-4.2,0.1c0,0-0.1,0-0.2-0.1c-0.1,0-0.1,0-0.2-0.1c0,0-0.1,0-0.1-0.1
	c-0.3-0.1-0.5-0.2-0.7-0.4c-1.1-0.7-1.8-1.6-2.3-2.6c0-0.1-0.1-0.1-0.1-0.2c-0.5-1.2-0.6-2.6-0.1-4.3c0-0.1,0.1-0.3,0.2-0.4
	c0.8-1.6,1.8-2.5,3-3c0.1,0,0.1-0.1,0.2-0.1c1.2-0.5,2.6-0.7,4.3,0C23.8,39.2,23.9,39.3,24,39.3z">
	</path>

<path id="gear2" class="st2" d="M48.6,33.8c-0.5,0.3-0.9,0.6-1.4,0.9c-0.1,0-0.2,0.2-0.2,0.1c0,0-0.1-0.1-0.1-0.1
	c-0.2-0.1-0.3-0.1-0.5-0.2c0,0-0.1,0-0.1,0c0,0-0.1,0-0.1-0.1c0,0-0.1,0-0.1,0c0,0-0.1,0-0.2-0.1c0,0,0,0,0,0
	c-0.1-0.7-0.1-1.4-0.2-2.2c-0.6-0.1-1.2-0.2-1.7-0.3c-0.3,0.7-0.7,1.3-1,2c-0.4,0-0.8,0-1.1,0.1c0,0-0.1,0-0.1,0
	c-0.4-0.6-0.8-1.2-1.2-1.8c-0.1,0-0.3,0.1-0.4,0.1c-0.4,0.2-0.9,0.3-1.3,0.5c0.1,0.7,0.1,1.4,0.1,2.2c-0.4,0.2-0.7,0.5-1,0.7
	c-0.2-0.1-0.5-0.2-0.7-0.3c0,0-0.1,0-0.1,0c0,0,0,0-0.1,0c0,0-0.1,0-0.1,0c0,0,0,0-0.1,0c0,0-0.1,0-0.1,0c0,0,0,0-0.1,0
	c0,0-0.1,0-0.1,0c0,0,0,0-0.1,0c0,0-0.1,0-0.1,0c-0.2-0.1-0.3-0.2-0.5-0.2c0,0-0.1,0-0.1,0c0,0,0,0-0.1,0c-0.4,0.4-0.8,0.9-1.1,1.3
	c0.4,0.6,0.8,1.2,1.2,1.8c-0.1,0.2-0.2,0.4-0.3,0.6c0,0,0,0.1,0,0.1c0,0.1,0,0.1-0.1,0.2c0,0.1-0.1,0.2-0.1,0.2
	c-0.7,0.1-1.4,0.1-2.1,0.2c0,0,0,0,0,0c-0.1,0.6-0.2,1.2-0.3,1.8c0.1,0,0.1,0.1,0.2,0.1c0.1,0,0.1,0,0.2,0.1c0.1,0,0.1,0,0.2,0.1
	c0,0,0.1,0,0.1,0.1c0,0,0,0,0.1,0c0,0,0.1,0,0.1,0.1c0,0,0,0,0.1,0c0,0,0.1,0,0.1,0.1c0.1,0,0.1,0,0.2,0.1c0,0,0.1,0,0.1,0.1
	c0,0,0,0,0.1,0c0,0,0.1,0,0.1,0.1c0,0,0,0,0.1,0c0,0,0.1,0,0.1,0.1c0.1,0,0.1,0,0.1,0.1c0,0,0,0,0,0c0.1,0.1,0,0.2,0,0.3
	c0,0.3,0.1,0.6,0.1,0.9c-0.6,0.4-1.2,0.8-1.8,1.2c0.2,0.6,0.4,1.1,0.6,1.7c0.7-0.1,1.4-0.1,2.1-0.1c0,0,0,0.1,0.1,0.1
	c0.2,0.3,0.4,0.6,0.6,0.9c-0.3,0.7-0.6,1.3-0.9,1.9c0.5,0.4,0.9,0.8,1.3,1.2c0.6-0.4,1.2-0.8,1.8-1.2c0,0,0.1,0.1,0.2,0.1
	c0.1,0,0.2,0.1,0.2,0.1c0.1,0,0.1,0,0.2,0.1c0,0,0.1,0,0.1,0c0,0,0.1,0,0.1,0c0.1,0,0.1,0,0.2,0.1c0,0,0,0,0,0
	c0.1,0,0.1,0.1,0.2,0.1c0,0,0,0,0,0c0,0.5,0.1,1.1,0.1,1.6c0,0.1,0,0.4,0.1,0.5c0.6,0.1,1.2,0.2,1.7,0.3c0.3-0.6,0.6-1.3,1-1.9
	c0.4,0,0.8,0,1.2-0.1c0,0,0.8,1.2,1.2,1.8c0,0,1.2-0.4,1.7-0.6c0-0.7-0.1-1.4-0.1-2.1c0.3-0.2,0.7-0.4,1-0.7
	c0.7,0.3,1.3,0.6,1.9,0.9c0.4-0.4,0.8-0.9,1.2-1.4c-0.2-0.3-1-1.5-1.2-1.8c0.1-0.2,0.5-1,0.5-1.1c0.7-0.1,1.4-0.1,2.2-0.2
	c0.1-0.5,0.4-1.7,0.4-1.7c-0.6-0.3-1.2-0.6-1.8-0.9c-0.1,0-0.1-0.1-0.2-0.1c0-0.4,0-0.8-0.1-1.2c0.6-0.4,1.2-0.8,1.8-1.2
	c-0.2-0.5-0.5-1.6-0.5-1.6s-2.1,0.1-2.2,0.1c-0.2-0.4-0.4-0.7-0.7-1c0.3-0.7,0.6-1.3,0.9-2c-0.4-0.4-0.9-0.8-1.3-1.1
	C48.8,33.7,48.6,33.8,48.6,33.8L48.6,33.8z M45,37.1L45,37.1c0.1,0.1,0.3,0.1,0.4,0.2c0,0,0,0,0,0c1.1,0.6,1.8,1.4,2.2,2.4
	c0,0.1,0.1,0.2,0.1,0.3c0.4,1,0.5,2.2,0,3.6c0,0,0,0.1,0,0.1c0,0.1-0.1,0.2-0.1,0.3c0,0,0,0.1,0,0.1c-0.7,1.4-1.6,2.1-2.6,2.5
	c0,0-0.1,0-0.1,0.1c-1.1,0.4-2.2,0.6-3.6,0.1c0,0-0.1,0-0.1,0c0,0-0.1,0-0.1-0.1c0,0-0.1,0-0.1-0.1c-0.2-0.1-0.4-0.2-0.6-0.3
	c-1-0.6-1.6-1.4-1.9-2.2c0-0.1-0.1-0.1-0.1-0.2c-0.4-1.1-0.6-2.2,0-3.7c0-0.1,0.1-0.3,0.1-0.4c0.7-1.4,1.6-2.1,2.6-2.6
	c0.1,0,0.1,0,0.2-0.1c1.1-0.4,2.2-0.6,3.7,0C44.9,37,45,37.1,45,37.1z">
	</path>
<path id="gear1" class="st3" d="M43.6,24.8c0.2-0.8,0.5-2.4,0.5-2.4c-0.8-0.4-1.7-0.8-2.5-1.3c-0.1,0-0.1-0.1-0.2-0.1
	c0-0.6,0-1.2-0.1-1.8c0.8-0.6,1.7-1.2,2.5-1.8c-0.2-0.7-0.8-2.3-0.8-2.3s-3.1,0.2-3.1,0.2c-0.3-0.5-0.6-1-1-1.5
	c0.4-0.9,0.9-1.9,1.3-2.8c-0.6-0.5-1.3-1.1-1.8-1.6c-0.1-0.1-0.3,0.1-0.4,0.2c-0.7,0.5-1.3,0.9-2,1.3c-0.1,0.1-0.3,0.2-0.3,0.2
	c-0.1,0-0.1-0.1-0.2-0.1c-0.2-0.1-0.4-0.2-0.7-0.3c0,0-0.1,0-0.1-0.1c-0.1,0-0.1-0.1-0.2-0.1c0,0-0.1,0-0.1-0.1
	c-0.1,0-0.2-0.1-0.2-0.1c0,0,0,0,0,0c-0.1-1-0.2-2-0.2-3.1c-0.8-0.2-1.7-0.3-2.5-0.5C31,7.7,30.5,8.6,30,9.5c-0.6,0-1.1,0-1.6,0.1
	c0,0-0.1,0-0.1,0c-0.6-0.8-1.2-1.7-1.7-2.5c-0.1,0-0.4,0.1-0.6,0.2c-0.6,0.2-1.2,0.4-1.8,0.6c0.1,1,0.1,2.1,0.2,3.1
	c-0.5,0.3-1,0.6-1.5,1c-0.3-0.2-0.7-0.3-1-0.5c0,0-0.1,0-0.1-0.1c0,0-0.1,0-0.1,0c0,0-0.1,0-0.1-0.1c0,0-0.1,0-0.1,0
	c0,0-0.1,0-0.1-0.1c0,0-0.1,0-0.1,0c0,0-0.1,0-0.1-0.1c0,0-0.1,0-0.1,0c0,0-0.1,0-0.1-0.1c-0.3-0.1-0.5-0.2-0.7-0.3
	c0,0-0.1,0-0.1-0.1c0,0-0.1,0-0.1,0c-0.5,0.6-1.1,1.3-1.6,1.9c0.5,0.9,1.1,1.7,1.7,2.6c-0.2,0.3-0.3,0.6-0.5,0.9c0,0,0,0.1-0.1,0.1
	c0,0.1-0.1,0.1-0.1,0.2c0,0.1-0.1,0.2-0.1,0.3c-1,0.1-2,0.2-3.1,0.2c0,0,0,0,0,0c-0.2,0.8-0.3,1.7-0.5,2.5c0.1,0.1,0.2,0.1,0.3,0.1
	c0.1,0,0.2,0.1,0.3,0.1c0.1,0,0.1,0.1,0.2,0.1c0.1,0,0.2,0.1,0.2,0.1c0,0,0.1,0,0.1,0c0.1,0,0.2,0.1,0.2,0.1c0,0,0.1,0,0.1,0
	c0.1,0,0.2,0.1,0.2,0.1c0.1,0,0.1,0.1,0.2,0.1c0.1,0,0.2,0.1,0.2,0.1c0,0,0.1,0,0.1,0c0.1,0,0.2,0.1,0.2,0.1c0,0,0.1,0,0.1,0
	c0.1,0,0.2,0.1,0.2,0.1c0.1,0,0.2,0.1,0.2,0.1c0,0,0,0,0,0c0.1,0.1,0,0.3,0,0.4c0,0.4,0.1,0.9,0.1,1.3c-0.8,0.6-1.7,1.2-2.5,1.8
	c0.3,0.8,0.5,1.6,0.8,2.4c1-0.1,2-0.1,3-0.2c0,0,0.1,0.1,0.1,0.2c0.3,0.4,0.6,0.9,0.9,1.3c-0.4,0.9-0.9,1.9-1.3,2.8
	c0.7,0.6,1.3,1.1,1.9,1.7c0.9-0.6,1.7-1.2,2.6-1.7c0.1,0.1,0.2,0.1,0.2,0.1c0.1,0.1,0.2,0.1,0.4,0.2c0.1,0,0.1,0.1,0.2,0.1
	c0,0,0.1,0,0.1,0.1c0,0,0.1,0,0.1,0.1c0.1,0,0.1,0.1,0.2,0.1c0,0,0,0,0,0c0.1,0,0.2,0.1,0.3,0.1c0,0,0,0,0,0
	c0.1,0.7,0.1,1.5,0.2,2.3c0,0.2,0,0.6,0.1,0.8c0.8,0.1,1.7,0.3,2.5,0.5c0.5-0.9,0.9-1.8,1.4-2.7c0.6,0,1.2-0.1,1.7-0.1
	c0,0.1,1.2,1.8,1.7,2.5c0,0,1.7-0.6,2.4-0.9c-0.1-1-0.1-2-0.2-3.1c0.5-0.3,1-0.6,1.4-1c0.9,0.4,1.8,0.9,2.7,1.3
	c0.6-0.6,1.1-1.3,1.7-1.9c-0.3-0.4-1.4-2.1-1.7-2.6c0.2-0.3,0.7-1.5,0.8-1.6C41.5,24.9,42.6,24.9,43.6,24.8z M30,28.8
	c-4.3,0-7.9-3.5-7.9-7.9c0-4.3,3.5-7.9,7.9-7.9c4.3,0,7.9,3.5,7.9,7.9C37.8,25.2,34.3,28.8,30,28.8z">
	</path>
</svg>
