<svg xmlns="http://www.w3.org/2000/svg" viewBox="0 0 55.66 54.955"><defs><style>.cls-1{isolation:isolate;}.cls-2{fill:#4dbfd9;}.cls-3{fill:#354546;}.cls-4{fill:#d5e5e6;mix-blend-mode:multiply;}</style></defs><g class="cls-1"><g id="레이어_2" data-name="레이어 2"><g id="icons"><path class="cls-2" d="M32.372,8.551a8.111,8.111,0,0,1-8.11,7.691h-.081a2.9,2.9,0,0,1-.348-.007,7.8,7.8,0,0,1-2.321-.475A8.119,8.119,0,0,1,24.262,0c.14,0,.272.007.421.014A8.124,8.124,0,0,1,32.372,8.551Z"/><path class="cls-2" d="M14.162,52.26a8.134,8.134,0,1,1-.615-11.467c.094.086.188.173.281.267a8.1,8.1,0,0,1,.334,11.2Z"/><path class="cls-3" d="M24.822,34.1l-.079.08-.481.465-4.387,4.261-4.464,4.338-3.825,3.712a2.67,2.67,0,0,1-3.719-3.832L11.613,39.5l5.052-4.913,4.44-4.307a2.547,2.547,0,0,1,1.228-.672,2.609,2.609,0,0,1,1.929.252,2.4,2.4,0,0,1,.481.348c.012.014.033.027.047.046s.059.053.086.081A2.668,2.668,0,0,1,24.822,34.1Z"/><path class="cls-3" d="M26.858,9.513l-.007,6.308-.014,8.617,0,3.225a2.669,2.669,0,0,1-2.042,2.589c-.04.007-.088.021-.128.026a1.924,1.924,0,0,1-.4.041.486.486,0,0,1-.1.007,2.663,2.663,0,0,1-2.671-2.67l.007-3.03.014-8.866.006-6.254a2.668,2.668,0,0,1,2.67-2.663h.074A2.668,2.668,0,0,1,26.858,9.513Z"/><path class="cls-2" d="M32.545,32.189a7.479,7.479,0,0,1-.088,1.187,8.1,8.1,0,0,1-8.029,6.937,1.154,1.154,0,0,1-.166-.008,7.378,7.378,0,0,1-1.636-.2,8.007,8.007,0,0,1-2.751-1.193,8.031,8.031,0,0,1-3.21-4.326A8.108,8.108,0,0,1,21.5,24.626a7.179,7.179,0,0,1,1.128-.349,6.884,6.884,0,0,1,.749-.139,6.381,6.381,0,0,1,.887-.06,1.317,1.317,0,0,1,.166-.007,7.975,7.975,0,0,1,2.409.367,8.085,8.085,0,0,1,5.555,6.207A7.812,7.812,0,0,1,32.545,32.189Z"/><path class="cls-3" d="M44.318,38.422a2.72,2.72,0,0,1-.526-.053L26,34.81a2.671,2.671,0,0,1,1.047-5.238l17.794,3.561a2.67,2.67,0,0,1-.52,5.289Z"/><path class="cls-2" d="M55.66,35.752a8.122,8.122,0,1,1-8.121-8.123A8.121,8.121,0,0,1,55.66,35.752Z"/><path class="cls-4" d="M24.262,0V40.305a7.378,7.378,0,0,1-1.636-.2,8.007,8.007,0,0,1-2.751-1.193l-4.464,4.338a8.12,8.12,0,1,1-3.8-3.751l5.052-4.913A8.108,8.108,0,0,1,21.5,24.626l.014-8.866A8.119,8.119,0,0,1,24.262,0Z"/></g></g></g></svg>