<?xml version="1.0" encoding="utf-8"?>
<!-- Generator: Adobe Illustrator 24.1.2, SVG Export Plug-In . SVG Version: 6.00 Build 0)  -->
<svg version="1.1" id="레이어_1" xmlns="http://www.w3.org/2000/svg" xmlns:xlink="http://www.w3.org/1999/xlink" x="0px"
	 y="0px" viewBox="0 0 234.7 234.2" style="enable-background:new 0 0 234.7 234.2;" xml:space="preserve">
<style type="text/css">
	.st0{opacity:0.2;}
	.st1{fill:#FFFFFF;}
	.st2{fill:#1D7DC2;}
</style>
<g>
	<g id="레이어_2_1_">
		<g id="OBJECTS">
			<g class="st0">
				
					<image style="overflow:visible;" width="247" height="247" xlink:href="75859342.png"  transform="matrix(1 0 0 1 3.2117 3.3782)">
				</image>
			</g>
			<circle class="st1" cx="119.7" cy="119.7" r="92.1"/>
			<g class="st0">
				
					<image style="overflow:visible;" width="238" height="238" xlink:href="75859347.png"  transform="matrix(1 0 0 1 3.2117 3.3782)">
				</image>
			</g>
			<circle class="st1" cx="119.7" cy="119.7" r="82.4"/>
			<path class="st1" d="M2.9,122.6c-1.6,0-2.9-1.3-2.9-2.9c0,0,0,0,0,0C0,53.6,53.6,0,119.7,0c44.3,0,85,24.5,105.7,63.6
				c0.7,1.4,0.2,3.2-1.2,3.9c-1.4,0.7-3.2,0.2-3.9-1.2l0,0c-29.5-55.6-98.5-76.7-154.1-47.2C29.1,38.9,5.8,77.6,5.8,119.7
				C5.8,121.3,4.5,122.6,2.9,122.6C2.9,122.6,2.9,122.6,2.9,122.6z"/>
			<path class="st2" d="M119.7,193.3c-40.6,0-73.5-32.9-73.5-73.5s32.9-73.5,73.5-73.5s73.5,32.9,73.5,73.5c0,0,0,0,0,0
				C193.2,160.3,160.3,193.2,119.7,193.3z M119.7,49.1c-39,0-70.7,31.6-70.7,70.7s31.6,70.7,70.7,70.7c39,0,70.7-31.6,70.7-70.7
				C190.3,80.7,158.7,49.1,119.7,49.1L119.7,49.1z"/>
			<path class="st1" d="M225.1,47.8L205.6,59c-1.1,0.7-1.5,2.1-0.9,3.3c0.2,0.4,0.5,0.7,0.9,0.9l19.5,11.2c1.1,0.7,2.6,0.3,3.3-0.9
				c0.2-0.4,0.3-0.8,0.3-1.2V49.8c0-1.3-1.1-2.4-2.4-2.4C225.9,47.5,225.5,47.6,225.1,47.8z"/>
		</g>
	</g>
</g>
</svg>
