<?xml version="1.0" encoding="utf-8"?>
<!-- Generator: Adobe Illustrator 24.1.2, SVG Export Plug-In . SVG Version: 6.00 Build 0)  -->
<svg version="1.1" id="레이어_1" xmlns="http://www.w3.org/2000/svg" xmlns:xlink="http://www.w3.org/1999/xlink" x="0px"
	 y="0px" viewBox="0 0 234 220" style="enable-background:new 0 0 234 220;" xml:space="preserve">
<style type="text/css">
	.st0{opacity:0.2;}
	.st1{fill:#FFFFFF;}
	.st2{fill:#1D7DC2;}
</style>
<g class="st0">
	<image style="overflow:visible;" width="247" height="248" xlink:href="BB773EFC.png"  transform="matrix(1 0 0 1 3 -17.951)">
	</image>
</g>
<circle class="st1" cx="119.7" cy="100.3" r="92.1"/>
<g class="st0">
	<image style="overflow:visible;" width="238" height="239" xlink:href="BB773EFF.png"  transform="matrix(1 0 0 1 3 -17.951)">
	</image>
</g>
<circle class="st1" cx="119.7" cy="100.3" r="82.4"/>
<path class="st2" d="M119.7,173.9c-40.6,0-73.5-32.9-73.5-73.5s32.9-73.5,73.5-73.5c40.6,0,73.5,32.9,73.5,73.5c0,0,0,0,0,0
	C193.2,140.9,160.3,173.8,119.7,173.9z M119.7,29.7c-39,0-70.7,31.6-70.7,70.7S80.7,171,119.7,171c39,0,70.7-31.6,70.7-70.7
	c0,0,0,0,0,0C190.3,61.3,158.7,29.7,119.7,29.7L119.7,29.7z"/>
<path class="st1" d="M225.1,172.3L205.6,161c-1.1-0.7-1.5-2.1-0.9-3.3c0.2-0.4,0.5-0.7,0.9-0.9l19.5-11.2c1.1-0.7,2.6-0.3,3.3,0.9
	c0.2,0.4,0.3,0.8,0.3,1.2v22.5c0,1.3-1.1,2.4-2.4,2.4C225.9,172.6,225.5,172.5,225.1,172.3z"/>
<path class="st1" d="M119.7,220C53.6,220,0.1,166.4,0,100.3c0-1.6,1.3-2.9,2.9-2.9s2.9,1.3,2.9,2.9c0,62.9,51,113.9,114,113.9
	c42.2,0,80.9-23.3,100.6-60.5c0.7-1.4,2.5-1.9,3.9-1.2s1.9,2.5,1.2,3.9l0,0C204.7,195.6,164,220.1,119.7,220z"/>
</svg>
