<svg width="16" height="16" viewBox="0 0 16 16" fill="none" xmlns="http://www.w3.org/2000/svg">
<path fill-rule="evenodd" clip-rule="evenodd" d="M10.9435 10.9435C13.0379 8.84896 13.0379 5.45312 10.9435 3.35863C8.84896 1.26414 5.45312 1.26414 3.35863 3.35863C1.26414 5.45312 1.26414 8.84896 3.35863 10.9435C5.45312 13.0379 8.84896 13.0379 10.9435 10.9435ZM12.2076 12.2076C15.0002 9.41493 15.0002 4.88715 12.2076 2.09449C9.41493 -0.698164 4.88715 -0.698164 2.09449 2.09449C-0.698164 4.88715 -0.698164 9.41493 2.09449 12.2076C4.88715 15.0002 9.41493 15.0002 12.2076 12.2076Z" fill="white"/>
<path fill-rule="evenodd" clip-rule="evenodd" d="M14.7359 16L10.3114 11.5755L11.5755 10.3114L16 14.7359L14.7359 16Z" fill="white"/>
</svg>
