<svg width="26" height="26" viewBox="0 0 26 26" fill="none" xmlns="http://www.w3.org/2000/svg">
<circle cx="13" cy="13" r="13" fill="#D9D9D9"/>
<mask id="mask0_130_421" style="mask-type:alpha" maskUnits="userSpaceOnUse" x="0" y="0" width="26" height="26">
<circle cx="13" cy="13" r="13" fill="#D9D9D9"/>
</mask>
<g mask="url(#mask0_130_421)">
<path d="M18.2001 10.4002C18.2001 13.2721 15.872 15.6002 13.0001 15.6002C10.1282 15.6002 7.8001 13.2721 7.8001 10.4002C7.8001 7.52831 10.1282 5.2002 13.0001 5.2002C15.872 5.2002 18.2001 7.52831 18.2001 10.4002Z" fill="#999999"/>
<path d="M23.4001 27.7335C23.4001 33.4773 18.7439 38.1335 13.0001 38.1335C7.25634 38.1335 2.6001 33.4773 2.6001 27.7335C2.6001 21.9898 7.25634 17.3335 13.0001 17.3335C18.7439 17.3335 23.4001 21.9898 23.4001 27.7335Z" fill="#999999"/>
</g>
</svg>
